<?xml version="1.0" encoding="UTF-8"?>
<svg version="1.1" xmlns="http://www.w3.org/2000/svg" width="228" height="60">
<path d="M0 0 C17.16 0 34.32 0 52 0 C52.061875 4.2075 52.12375 8.415 52.1875 12.75 C52.22846802 14.7005127 52.22846802 14.7005127 52.27026367 16.69042969 C52.34282094 27.01696751 51.7542982 37.38756973 44.23828125 45.12890625 C40.62720198 48.14759206 36.69803112 50.61603454 32.671875 53.04296875 C29.84569865 55.11301897 28.56371705 56.89934188 27 60 C24.30876497 58.90357092 22.7917065 57.78776291 20.73046875 55.6875 C17.9823814 52.98265866 15.1580641 50.89089422 12 48.6875 C5.85340182 44.15126518 1.48985183 39.63747603 0 32 C-0.08242194 29.53762233 -0.10743299 27.07311232 -0.09765625 24.609375 C-0.09515869 23.31999023 -0.09266113 22.03060547 -0.09008789 20.70214844 C-0.08098389 19.06793945 -0.07187988 17.43373047 -0.0625 15.75 C-0.0315625 7.95375 -0.0315625 7.95375 0 0 Z " fill="#E82124" transform="translate(0,0)"/>
<path d="M0 0 C17.16 0 34.32 0 52 0 C52.020625 4.33125 52.04125 8.6625 52.0625 13.125 C52.071604 14.47996582 52.08070801 15.83493164 52.09008789 17.23095703 C52.09258545 18.31231934 52.09508301 19.39368164 52.09765625 20.5078125 C52.10289307 21.60754395 52.10812988 22.70727539 52.11352539 23.84033203 C52.0008558 26.97618105 51.58626376 29.92059383 51 33 C50.67 33 50.34 33 50 33 C50 22.44 50 11.88 50 1 C42.08 1 34.16 1 26 1 C26 4.96 26 8.92 26 13 C24.35 13.99 22.7 14.98 21 16 C18.81838864 17.76762091 18.81838864 17.76762091 18.76953125 19.98828125 C18.84565195 24.10571926 18.96400552 27.9855214 20 32 C18.5 30.8125 18.5 30.8125 17 29 C17 27.35 17 25.7 17 24 C11.72 24 6.44 24 1 24 C1 26.64 1 29.28 1 32 C0.67 32 0.34 32 0 32 C0 21.44 0 10.88 0 0 Z " fill="#30407A" transform="translate(0,0)"/>
<path d="M0 0 C4.95 0 9.9 0 15 0 C15.58948515 13.11604467 15.58948515 13.11604467 11 19 C7.88890649 22.04745751 4.62132472 24.58578352 1 27 C-1.1875 26.625 -1.1875 26.625 -3 26 C-2.91621094 25.40832031 -2.83242188 24.81664063 -2.74609375 24.20703125 C-2.19110576 19.90060543 -1.76773348 16.24447356 -3 12 C-3.66 12.66 -4.32 13.32 -5 14 C-5.99 14.33 -6.98 14.66 -8 15 C-8 13.68 -8 12.36 -8 11 C-7.236875 10.401875 -6.47375 9.80375 -5.6875 9.1875 C-2.24454402 6.38509397 -1.50593656 4.12151059 0 0 Z " fill="#E6E8E8" transform="translate(35,24)"/>
<path d="M0 0 C5.28 0 10.56 0 16 0 C16.66 2.31 17.32 4.62 18 7 C19.6396721 8.36639342 21.30327614 9.70513179 23 11 C23 12.32 23 13.64 23 15 C22.01 14.67 21.02 14.34 20 14 C20.33 13.34 20.66 12.68 21 12 C20.01 12 19.02 12 18 12 C17.80522261 13.62414378 17.61940542 15.24936423 17.4375 16.875 C17.33308594 17.77992187 17.22867187 18.68484375 17.12109375 19.6171875 C16.80325148 22.01653057 16.80325148 22.01653057 18 24 C17.67 24.66 17.34 25.32 17 26 C11.02685934 25.62667871 6.50102158 21.7309205 2.59765625 17.46875 C-1.09628703 12.10530211 -0.28227198 6.28055159 0 0 Z " fill="#E9E9E9" transform="translate(1,24)"/>
<path d="M0 0 C4.455 0.99 4.455 0.99 9 2 C8.01 2.495 8.01 2.495 7 3 C7 4.32 7 5.64 7 7 C7.45375 6.505 7.9075 6.01 8.375 5.5 C10 4 10 4 12 4 C12 5.32 12 6.64 12 8 C12.66 8.33 13.32 8.66 14 9 C14.08946233 12.22064378 13.82732699 14.89752377 13 18 C13 18.99 13 19.98 13 21 C11.37550757 22.70779973 9.70779973 24.37550757 8 26 C7.67 26.66 7.34 27.32 7 28 C2.07019047 25.99155908 -1.09403383 22.35894926 -4 18 C-3.34 18 -2.68 18 -2 18 C-2.14308594 17.11248047 -2.14308594 17.11248047 -2.2890625 16.20703125 C-2.94154485 11.55619775 -3.34537279 8.27685626 -1 4 C-0.01 4 0.98 4 2 4 C2 4.66 2 5.32 2 6 C2.66 6.33 3.32 6.66 4 7 C4 5.68 4 4.36 4 3 C2.68 2.34 1.36 1.68 0 1 C0 0.67 0 0.34 0 0 Z " fill="#4F514B" transform="translate(20,32)"/>
<path d="M0 0 C2.6853658 2.13452153 3.79195044 3.71387547 4.34375 7.125 C4.54778431 12.15784631 3.6852813 15.63641789 1 20 C-5.35903614 20.48915663 -5.35903614 20.48915663 -8.375 18.1875 C-11.57406229 13.88107 -11.65331826 9.17054735 -11 4 C-8.2228864 -0.5544663 -5.08853596 -0.81780042 0 0 Z " fill="#F26B1D" transform="translate(29,14)"/>
<path d="M0 0 C2.64 0 5.28 0 8 0 C8.12375 0.804375 8.2475 1.60875 8.375 2.4375 C8.58125 3.283125 8.7875 4.12875 9 5 C9.66 5.33 10.32 5.66 11 6 C11.33 4.02 11.66 2.04 12 0 C13.98 0 15.96 0 18 0 C18 0.66 18 1.32 18 2 C16.04072937 3.7143618 14.04119788 5.38405168 12 7 C12.309375 7.598125 12.61875 8.19625 12.9375 8.8125 C14 11 14 11 15 14 C17.01508358 14.73323796 17.01508358 14.73323796 19 15 C19.82638376 12.10765685 20 10.11257569 20 7 C21 6 21 6 23.5 5.875 C26 6 26 6 27 7 C27.04092937 9.33297433 27.04241723 11.66705225 27 14 C27.66 14 28.32 14 29 14 C29 14.66 29 15.32 29 16 C22.95170514 16.89604368 17.1105424 17.11269443 11 17 C10.67 15.35 10.34 13.7 10 12 C9.34 12 8.68 12 8 12 C7.67 13.65 7.34 15.3 7 17 C4.69 17 2.38 17 0 17 C0 16.34 0 15.68 0 15 C0.8971875 14.6596875 0.8971875 14.6596875 1.8125 14.3125 C4.56351888 12.66188867 5.52484637 10.8027919 7 8 C4.20579508 4.08396696 4.20579508 4.08396696 0 2 C0 1.34 0 0.68 0 0 Z M22 8 C22 8.66 22 9.32 22 10 C22.66 10 23.32 10 24 10 C24 9.34 24 8.68 24 8 C23.34 8 22.68 8 22 8 Z M23 12 C22.67 12.66 22.34 13.32 22 14 C22.66 14 23.32 14 24 14 C23.67 13.34 23.34 12.68 23 12 Z " fill="#FEFDFD" transform="translate(58,8)"/>
<path d="M0 0 C3.12623937 1.47117147 4.94938342 0.10174453 8.125 -1 C10.8125 -0.5625 10.8125 -0.5625 13.125 0 C14.115 -0.33 15.105 -0.66 16.125 -1 C17.115 -0.67 18.105 -0.34 19.125 0 C19.125 0.99 19.125 1.98 19.125 3 C18.135 3 17.145 3 16.125 3 C17.115 3.66 18.105 4.32 19.125 5 C18.795 6.65 18.465 8.3 18.125 10 C15.75 10.625 15.75 10.625 13.125 11 C12.465 10.34 11.805 9.68 11.125 9 C11.455 8.01 11.785 7.02 12.125 6 C13.445 6.66 14.765 7.32 16.125 8 C15.465 7.54625 14.805 7.0925 14.125 6.625 C13.465 6.08875 12.805 5.5525 12.125 5 C12.125 4.34 12.125 3.68 12.125 3 C11.135 3 10.145 3 9.125 3 C9.125 5.64 9.125 8.28 9.125 11 C7.20958862 11.10841951 5.29240227 11.18578079 3.375 11.25 C1.77398437 11.31960937 1.77398437 11.31960937 0.140625 11.390625 C-2.875 11 -2.875 11 -5.265625 9.1796875 C-6.875 7 -6.875 7 -6.875 3.875 C-5.875 1 -5.875 1 -4.0625 -0.5 C-1.875 -1 -1.875 -1 0 0 Z M-3.875 2 C0.125 3 0.125 3 0.125 3 Z M4.125 2 C3.795 2.99 3.465 3.98 3.125 5 C0.815 5 -1.495 5 -3.875 5 C-3.215 6.32 -2.555 7.64 -1.875 9 C0.435 9 2.745 9 5.125 9 C5.125 6.69 5.125 4.38 5.125 2 C4.795 2 4.465 2 4.125 2 Z " fill="#FEFEFD" transform="translate(182.875,14)"/>
<path d="M0 0 C0.66 0 1.32 0 2 0 C2 0.99 2 1.98 2 3 C4.64 3 7.28 3 10 3 C10.33 4.65 10.66 6.3 11 8 C11 7.01 11 6.02 11 5 C11 4.34 11 3.68 11 3 C12.65 3 14.3 3 16 3 C14.46527032 7.72224516 12.76054874 12.35855331 11 17 C11.66 17 12.32 17 13 17 C13.99 17 14.98 17 16 17 C15.67 18.98 15.34 20.96 15 23 C13.02 23.33 11.04 23.66 9 24 C9 22.35 9 20.7 9 19 C8.01 18.67 7.02 18.34 6 18 C6 17.34 6 16.68 6 16 C6.99 16 7.98 16 9 16 C8.32575718 10.70429029 8.32575718 10.70429029 6 6 C3.94999129 5.19471111 3.94999129 5.19471111 2 5 C2 6.98 2 8.96 2 11 C3.32 10.67 4.64 10.34 6 10 C5.34 11.32 4.68 12.64 4 14 C1.525 13.01 1.525 13.01 -1 12 C-1 9.69 -1 7.38 -1 5 C-1.66 5 -2.32 5 -3 5 C-3 4.34 -3 3.68 -3 3 C-2.34 3 -1.68 3 -1 3 C-0.67 2.01 -0.34 1.02 0 0 Z " fill="#FEFDFD" transform="translate(211,11)"/>
<path d="M0 0 C1.0725 0.33 2.145 0.66 3.25 1 C6.99731601 2.1717751 6.99731601 2.1717751 11 2 C11 2.66 11 3.32 11 4 C11.66 4 12.32 4 13 4 C13.33 3.01 13.66 2.02 14 1 C14.99 1 15.98 1 17 1 C16.67 1.99 16.34 2.98 16 4 C13.4375 5.1875 13.4375 5.1875 11 6 C11 6.66 11 7.32 11 8 C12.65 7.67 14.3 7.34 16 7 C16.92091738 9.57856865 17.18506902 10.5943287 16.0234375 13.140625 C15.51683594 14.06101562 15.51683594 14.06101562 15 15 C11.94928825 15.287803 9.03939738 15.4472872 6 15 C3.89638304 12.5776532 3 11.21754366 3 8 C4.98 8 6.96 8 9 8 C9 7.34 9 6.68 9 6 C8.2575 6.0825 7.515 6.165 6.75 6.25 C4 6 4 6 1.6875 4.125 C0 2 0 2 0 0 Z " fill="#F5F9F9" transform="translate(28,3)"/>
<path d="M0 0 C1 1 1 1 1.0625 4.5625 C1.041875 5.696875 1.02125 6.83125 1 8 C1.99 8 2.98 8 4 8 C3.835 7.071875 3.67 6.14375 3.5 5.1875 C3 2 3 2 3 -1 C4.32 -1.33 5.64 -1.66 7 -2 C7.33 1.96 7.66 5.92 8 10 C4.37 10 0.74 10 -3 10 C-2.67 7.03 -2.34 4.06 -2 1 C-2.99 1 -3.98 1 -5 1 C-4.67 3.97 -4.34 6.94 -4 10 C-5.98 10 -7.96 10 -10 10 C-10 9.34 -10 8.68 -10 8 C-9.34 8 -8.68 8 -8 8 C-8.165 7.071875 -8.33 6.14375 -8.5 5.1875 C-9 2 -9 2 -9 -1 C-5.21801096 -2.26066301 -3.63636792 -1.42292658 0 0 Z " fill="#FFFFFF" transform="translate(156,15)"/>
<path d="M0 0 C7.92 0 15.84 0 24 0 C24 7.26 24 14.52 24 22 C19.05 22 14.1 22 9 22 C9 21.67 9 21.34 9 21 C13.62 21 18.24 21 23 21 C22.67 15.06 22.34 9.12 22 3 C18.9990625 3.0309375 18.9990625 3.0309375 15.9375 3.0625 C11.16502811 3.06771012 6.68663769 2.87193259 2 2 C4.58590343 5.50944037 5.9915966 6.9957983 10 9 C6.7 9.66 3.4 10.32 0 11 C0 7.37 0 3.74 0 0 Z " fill="#ED2023" transform="translate(26,1)"/>
<path d="M0 0 C1.67540664 0.64438717 3.34183216 1.31246699 5 2 C6.68577711 1.38325228 8.35448038 0.71727778 10 0 C12.3125 0.375 12.3125 0.375 14 1 C14 1.99 14 2.98 14 4 C13.01 4 12.02 4 11 4 C10.67 5.98 10.34 7.96 10 10 C10.66 10 11.32 10 12 10 C12 10.66 12 11.32 12 12 C9.91781638 12.10832169 7.83400871 12.18573541 5.75 12.25 C4.00976562 12.31960937 4.00976562 12.31960937 2.234375 12.390625 C-1 12 -1 12 -3.421875 10.14453125 C-5 8 -5 8 -5 5.4375 C-3.78344185 2.4721395 -2.90423812 1.37144578 0 0 Z M-2 3 C2 4 2 4 2 4 Z M5 3 C5 3.99 5 4.98 5 6 C2.69 6 0.38 6 -2 6 C-1.34 7.32 -0.68 8.64 0 10 C2.31 10 4.62 10 7 10 C7 7.69 7 5.38 7 3 C6.34 3 5.68 3 5 3 Z " fill="#FDFDFB" transform="translate(109,13)"/>
<path d="M0 0 C1.98 0 3.96 0 6 0 C5.67 4.62 5.34 9.24 5 14 C8.465 13.505 8.465 13.505 12 13 C12.33 9.37 12.66 5.74 13 2 C12.34 2 11.68 2 11 2 C11 1.34 11 0.68 11 0 C12.98 0 14.96 0 17 0 C17 0.66 17 1.32 17 2 C16.34 2 15.68 2 15 2 C15.04640625 2.74765625 15.0928125 3.4953125 15.140625 4.265625 C15.43281527 12.23824513 15.43281527 12.23824513 13.4375 15.75 C9.95358032 17.53662547 7.72139196 16.96480532 4 16 C2 14 2 14 1.8046875 11.1796875 C1.82789063 10.08914062 1.85109375 8.99859375 1.875 7.875 C1.89304688 6.77929688 1.91109375 5.68359375 1.9296875 4.5546875 C1.95289063 3.71164062 1.97609375 2.86859375 2 2 C1.34 2 0.68 2 0 2 C0 1.34 0 0.68 0 0 Z " fill="#FFFFFF" transform="translate(129,8)"/>
<path d="M0 0 C1.47033252 2.94066505 1 5.74474326 1 9 C1.33 9.99 1.66 10.98 2 12 C0.02 12 -1.96 12 -4 12 C-4 11.34 -4 10.68 -4 10 C-3.34 10 -2.68 10 -2 10 C-2.33 8.02 -2.66 6.04 -3 4 C-3.99 3.67 -4.98 3.34 -6 3 C-6.99 5.97 -7.98 8.94 -9 12 C-9.66 12 -10.32 12 -11 12 C-11.99 9.03 -12.98 6.06 -14 3 C-14.66 3 -15.32 3 -16 3 C-16 2.34 -16 1.68 -16 1 C-14.02 1 -12.04 1 -10 1 C-9.67 2.32 -9.34 3.64 -9 5 C-9 3.68 -9 2.36 -9 1 C-4.545 0.505 -4.545 0.505 0 0 Z " fill="#FFFFFF" transform="translate(102,13)"/>
<path d="M0 0 C0.33 0.66 0.66 1.32 1 2 C-0.98 2 -2.96 2 -5 2 C-4.01 3.98 -3.02 5.96 -2 8 C-0.88625 7.95875 0.2275 7.9175 1.375 7.875 C5 8 5 8 7 10 C6.34 10 5.68 10 5 10 C5 10.66 5 11.32 5 12 C4.01 12 3.02 12 2 12 C2 11.34 2 10.68 2 10 C0.68 10 -0.64 10 -2 10 C-1.67 11.32 -1.34 12.64 -1 14 C3.95 14 8.9 14 14 14 C14 14.33 14 14.66 14 15 C9.05 15.33 4.1 15.66 -1 16 C-1.99 18.31 -2.98 20.62 -4 23 C-4.33 22.34 -4.66 21.68 -5 21 C-4.67 20.34 -4.34 19.68 -4 19 C-3.59300537 14.94570732 -3.43730718 11.25042848 -5.125 7.5 C-7.64582019 5.48334385 -9.83062828 5.28172193 -13 5 C-8.58197723 2.05465149 -5.30525709 0.72344415 0 0 Z " fill="#6C3C1E" transform="translate(36,9)"/>
<path d="M0 0 C1 3 1 3 1 6 C2.32 6.33 3.64 6.66 5 7 C5 5.35 5 3.7 5 2 C5.66 2.33 6.32 2.66 7 3 C6.979375 3.804375 6.95875 4.60875 6.9375 5.4375 C6.70366379 7.93354885 6.70366379 7.93354885 8 9 C6.94124926 12.40312738 5.99097846 15.01353231 4 18 C2.125 17.375 2.125 17.375 0 16 C-1.25 12.875 -1.25 12.875 -2 10 C-1.67 9.67 -1.34 9.34 -1 9 C-1.185625 8.05125 -1.37125 7.1025 -1.5625 6.125 C-2 3 -2 3 0 0 Z " fill="#C4C4C3" transform="translate(23,42)"/>
<path d="M0 0 C0.33 1.32 0.66 2.64 1 4 C1.99 4 2.98 4 4 4 C4 2.68 4 1.36 4 0 C5.65 0 7.3 0 9 0 C8.67 0.99 8.34 1.98 8 3 C8.65035814 4.34136367 9.3162955 5.67532254 10 7 C9.67 7.66 9.34 8.32 9 9 C8.01 9 7.02 9 6 9 C6 9.99 6 10.98 6 12 C4.68 11.67 3.36 11.34 2 11 C2 10.34 2 9.68 2 9 C2.66 9 3.32 9 4 9 C4 8.01 4 7.02 4 6 C3.01 6 2.02 6 1 6 C0.67 6.99 0.34 7.98 0 9 C0 6.03 0 3.06 0 0 Z " fill="#F2631E" transform="translate(23,21)"/>
<path d="M0 0 C0.66 0 1.32 0 2 0 C2 1.32 2 2.64 2 4 C2.66 4.33 3.32 4.66 4 5 C4.08946233 8.22064378 3.82732699 10.89752377 3 14 C3 14.99 3 15.98 3 17 C2.01 17 1.02 17 0 17 C-0.66 16.34 -1.32 15.68 -2 15 C-1.66666667 13.66666667 -1.33333333 12.33333333 -1 11 C-1.185625 10.030625 -1.37125 9.06125 -1.5625 8.0625 C-2.05068272 4.64522097 -1.52099133 3.04198266 0 0 Z " fill="#444545" transform="translate(30,36)"/>
<path d="M0 0 C1.0725 0.33 2.145 0.66 3.25 1 C6.99731601 2.1717751 6.99731601 2.1717751 11 2 C11 2.66 11 3.32 11 4 C11.66 4 12.32 4 13 4 C13.33 3.01 13.66 2.02 14 1 C14.99 1 15.98 1 17 1 C16.67 1.99 16.34 2.98 16 4 C13.4375 5.1875 13.4375 5.1875 11 6 C11.33 6.99 11.66 7.98 12 9 C10.68 8.67 9.36 8.34 8 8 C8.33 7.34 8.66 6.68 9 6 C8.2575 6.0825 7.515 6.165 6.75 6.25 C4 6 4 6 1.6875 4.125 C0 2 0 2 0 0 Z " fill="#C4C8C8" transform="translate(28,3)"/>
<path d="M0 0 C1.98 0 3.96 0 6 0 C6.33 1.32 6.66 2.64 7 4 C7 2.68 7 1.36 7 0 C8.65 0 10.3 0 12 0 C12 0.66 12 1.32 12 2 C11.34 2 10.68 2 10 2 C9.01 4.97 8.02 7.94 7 11 C6.34 11 5.68 11 5 11 C4.01 8.03 3.02 5.06 2 2 C1.34 2 0.68 2 0 2 C0 1.34 0 0.68 0 0 Z " fill="#FEFEFE" transform="translate(164,14)"/>
<path d="M0 0 C5.94 0 11.88 0 18 0 C17.67 1.32 17.34 2.64 17 4 C16.34 4 15.68 4 15 4 C14.67 5.32 14.34 6.64 14 8 C12.35 8 10.7 8 9 8 C9 7.34 9 6.68 9 6 C10.65532623 4.98133771 12.32260138 3.98189187 14 3 C14.33 2.34 14.66 1.68 15 1 C11.88214887 1.64644661 11.88214887 1.64644661 11 4 C10.34 4 9.68 4 9 4 C9 3.34 9 2.68 9 2 C8.34 2 7.68 2 7 2 C6.67 2.66 6.34 3.32 6 4 C5.34 3.34 4.68 2.68 4 2 C2.68 1.34 1.36 0.68 0 0 Z " fill="#D22528" transform="translate(30,3)"/>
<path d="M0 0 C0.33 3.96 0.66 7.92 1 12 C-0.98 12 -2.96 12 -5 12 C-5 11.34 -5 10.68 -5 10 C-4.34 10 -3.68 10 -3 10 C-3.33 7.03 -3.66 4.06 -4 1 C-1 0 -1 0 0 0 Z " fill="#FEFDFD" transform="translate(207,13)"/>
<path d="M0 0 C0 0.66 0 1.32 0 2 C-0.99 2.33 -1.98 2.66 -3 3 C-2.01 3.33 -1.02 3.66 0 4 C0 4.66 0 5.32 0 6 C-1.65 6 -3.3 6 -5 6 C-5 9.3 -5 12.6 -5 16 C-7.67138833 11.99291751 -7.70573455 8.71056555 -7 4 C-4.71068477 0.76338192 -3.99788469 0 0 0 Z " fill="#F4E90A" transform="translate(25,14)"/>
<path d="M0 0 C3.125 0.4375 3.125 0.4375 5.5 2.9375 C6.03625 3.7625 6.5725 4.5875 7.125 5.4375 C6.795 6.0975 6.465 6.7575 6.125 7.4375 C5.774375 6.921875 5.42375 6.40625 5.0625 5.875 C3.04069826 4.05625799 3.04069826 4.05625799 -0.5 4.625 C-2.170625 5.0271875 -2.170625 5.0271875 -3.875 5.4375 C-4.205 6.0975 -4.535 6.7575 -4.875 7.4375 C-5.535 7.4375 -6.195 7.4375 -6.875 7.4375 C-4.38045455 0.66659091 -4.38045455 0.66659091 0 0 Z " fill="#DFE2E9" transform="translate(12.875,5.5625)"/>
<path d="M0 0 C0.99 0 1.98 0 3 0 C3 0.99 3 1.98 3 3 C2.34 3 1.68 3 1 3 C1 3.66 1 4.32 1 5 C2.32 5.33 3.64 5.66 5 6 C5 5.01 5 4.02 5 3 C5.66 3 6.32 3 7 3 C6.67 4.32 6.34 5.64 6 7 C-0.625 7.25 -0.625 7.25 -4 5 C-4 4.34 -4 3.68 -4 3 C-2.68 3 -1.36 3 0 3 C0 2.01 0 1.02 0 0 Z " fill="#D9A312" transform="translate(24,27)"/>
<path d="M0 0 C2.33333333 0 4.66666667 0 7 0 C6.67 1.98 6.34 3.96 6 6 C4.02 6.33 2.04 6.66 0 7 C0 4.69 0 2.38 0 0 Z " fill="#B69434" transform="translate(220,28)"/>
<path d="M0 0 C2.33333333 0 4.66666667 0 7 0 C6.67 1.98 6.34 3.96 6 6 C4.02 6.33 2.04 6.66 0 7 C0 4.69 0 2.38 0 0 Z " fill="#B39232" transform="translate(89,28)"/>
<path d="M0 0 C0.33 1.32 0.66 2.64 1 4 C1.99 4 2.98 4 4 4 C4 2.68 4 1.36 4 0 C5.65 0 7.3 0 9 0 C8.67 0.66 8.34 1.32 8 2 C7.01 2.33 6.02 2.66 5 3 C5 4.98 5 6.96 5 9 C4.67 8.01 4.34 7.02 4 6 C3.01 6 2.02 6 1 6 C0.67 6.99 0.34 7.98 0 9 C0 6.03 0 3.06 0 0 Z " fill="#ED2227" transform="translate(23,21)"/>
<path d="M0 0 C2.475 0.495 2.475 0.495 5 1 C5 2.65 5 4.3 5 6 C3.35 6.33 1.7 6.66 0 7 C0 4.69 0 2.38 0 0 Z " fill="#B69434" transform="translate(140,28)"/>
<path d="M0 0 C2.475 0.495 2.475 0.495 5 1 C5.625 2.875 5.625 2.875 6 5 C5.34 5.66 4.68 6.32 4 7 C2.68 7 1.36 7 0 7 C0 4.69 0 2.38 0 0 Z M2 2 C2.33 2.99 2.66 3.98 3 5 C3.33 4.01 3.66 3.02 4 2 C3.34 2 2.68 2 2 2 Z " fill="#B69433" transform="translate(129,28)"/>
<path d="M0 0 C2.125 0.375 2.125 0.375 4 1 C4.625 2.875 4.625 2.875 5 5 C4.34 5.66 3.68 6.32 3 7 C0.875 6.625 0.875 6.625 -1 6 C-1.625 4.125 -1.625 4.125 -2 2 C-1.34 1.34 -0.68 0.68 0 0 Z M0 2 C0.33 2.99 0.66 3.98 1 5 C1.66 4.34 2.32 3.68 3 3 C2.01 2.67 1.02 2.34 0 2 Z " fill="#B69433" transform="translate(112,28)"/>
<path d="M0 0 C2.475 0.495 2.475 0.495 5 1 C5 2.65 5 4.3 5 6 C3.35 6.33 1.7 6.66 0 7 C0 4.69 0 2.38 0 0 Z " fill="#B69434" transform="translate(101,28)"/>
<path d="M0 0 C2.475 0.495 2.475 0.495 5 1 C5 2.65 5 4.3 5 6 C3.35 6.33 1.7 6.66 0 7 C0 4.69 0 2.38 0 0 Z " fill="#B69434" transform="translate(80,28)"/>
<path d="M0 0 C1.32 0 2.64 0 4 0 C4 0.66 4 1.32 4 2 C2.68 2 1.36 2 0 2 C0.33 2.66 0.66 3.32 1 4 C2.32 3.67 3.64 3.34 5 3 C4.34 4.32 3.68 5.64 3 7 C1.68 6.67 0.36 6.34 -1 6 C-1.625 4.125 -1.625 4.125 -2 2 C-1.34 1.34 -0.68 0.68 0 0 Z " fill="#B69534" transform="translate(180,28)"/>
<path d="M0 0 C0.66 0 1.32 0 2 0 C2.33 2.64 2.66 5.28 3 8 C1.35 7.67 -0.3 7.34 -2 7 C-1.42415568 4.61435923 -0.77772405 2.33317216 0 0 Z " fill="#0F0F0F" transform="translate(25,41)"/>
<path d="M0 0 C0.66 0 1.32 0 2 0 C5 4.38461538 5 4.38461538 5 7 C2.69 7 0.38 7 -2 7 C-1.34 4.69 -0.68 2.38 0 0 Z " fill="#B6963A" transform="translate(191,28)"/>
<path d="M0 0 C1.65 0.33 3.3 0.66 5 1 C4.67 1.66 4.34 2.32 4 3 C3.01 2.67 2.02 2.34 1 2 C1 2.99 1 3.98 1 5 C2.32 4.67 3.64 4.34 5 4 C5 4.66 5 5.32 5 6 C3.1875 6.6875 3.1875 6.6875 1 7 C-0.75 5.5625 -0.75 5.5625 -2 4 C-1.34 2.68 -0.68 1.36 0 0 Z " fill="#B59434" transform="translate(158,28)"/>
<path d="M0 0 C0.66 0 1.32 0 2 0 C5 4.38461538 5 4.38461538 5 7 C4.401875 6.814375 3.80375 6.62875 3.1875 6.4375 C0.83591238 5.77906313 0.83591238 5.77906313 -2 7 C-1.34 4.69 -0.68 2.38 0 0 Z " fill="#B69537" transform="translate(169,28)"/>
<path d="M0 0 C0.66 0 1.32 0 2 0 C1.67 1.32 1.34 2.64 1 4 C0.34 4 -0.32 4 -1 4 C-1.33 5.32 -1.66 6.64 -2 8 C-3.65 8 -5.3 8 -7 8 C-7 7.34 -7 6.68 -7 6 C-5.33720673 4.9935725 -3.67016516 3.99414593 -2 3 C-1.34 2.01 -0.68 1.02 0 0 Z " fill="#90696A" transform="translate(46,3)"/>
<path d="M0 0 C0.66 0 1.32 0 2 0 C3.4606285 2.64738916 4 3.89448334 4 7 C3.01 6.67 2.02 6.34 1 6 C0.67 6.33 0.34 6.66 0 7 C-0.66 7 -1.32 7 -2 7 C-1.34 4.69 -0.68 2.38 0 0 Z " fill="#B69536" transform="translate(211,28)"/>
<path d="M0 0 C0.66 0 1.32 0 2 0 C3.4606285 2.64738916 4 3.89448334 4 7 C2 7 0 7 -2 7 C-1.34 4.69 -0.68 2.38 0 0 Z " fill="#B59435" transform="translate(61,28)"/>
<path d="M0 0 C1.98 0 3.96 0 6 0 C5.67 2.31 5.34 4.62 5 7 C4.01 7 3.02 7 2 7 C0.5393715 4.35261084 0 3.10551666 0 0 Z " fill="#B59434" transform="translate(69,28)"/>
<path d="M0 0 C1.5 1 1.5 1 3 3 C3.27345479 5.71846235 3.13491285 8.25677199 3 11 C2.01 10.01 1.02 9.02 0 8 C0.66 6.68 1.32 5.36 2 4 C0.35 4 -1.3 4 -3 4 C-3 3.34 -3 2.68 -3 2 C-2.01 2 -1.02 2 0 2 C0 1.34 0 0.68 0 0 Z " fill="#F7D40F" transform="translate(30,16)"/>
<path d="M0 0 C1.9375 0.3125 1.9375 0.3125 4 1 C4.33 1.99 4.66 2.98 5 4 C4.01 5.485 4.01 5.485 3 7 C1.35 5.35 -0.3 3.7 -2 2 C-1.34 2 -0.68 2 0 2 C0 1.34 0 0.68 0 0 Z " fill="#6C6D6D" transform="translate(18,48)"/>
<path d="M0 0 C1.98 0 3.96 0 6 0 C5.67 2.31 5.34 4.62 5 7 C4.01 7 3.02 7 2 7 C1.34 4.69 0.68 2.38 0 0 Z " fill="#B49232" transform="translate(199,28)"/>
<path d="M0 0 C0.99 0.33 1.98 0.66 3 1 C2.125 5.75 2.125 5.75 1 8 C-0.32 7.34 -1.64 6.68 -3 6 C-2.505 5.195625 -2.01 4.39125 -1.5 3.5625 C0.08419653 1.35103815 0.08419653 1.35103815 0 0 Z " fill="#CBD6D6" transform="translate(42,10)"/>
<path d="M0 0 C0.33 0.66 0.66 1.32 1 2 C-0.98 2 -2.96 2 -5 2 C-5 2.99 -5 3.98 -5 5 C-7.64 5 -10.28 5 -13 5 C-8.58197723 2.05465149 -5.30525709 0.72344415 0 0 Z " fill="#A0502E" transform="translate(36,9)"/>
<path d="M0 0 C1.98 0.495 1.98 0.495 4 1 C4.33 2.32 4.66 3.64 5 5 C3.02 5.99 3.02 5.99 1 7 C1 6.34 1 5.68 1 5 C0.34 4.67 -0.32 4.34 -1 4 C-0.67 2.68 -0.34 1.36 0 0 Z " fill="#525355" transform="translate(29,47)"/>
<path d="M0 0 C1.32 0.99 2.64 1.98 4 3 C4.66 2.67 5.32 2.34 6 2 C5.6875 3.9375 5.6875 3.9375 5 6 C4.01 6.33 3.02 6.66 2 7 C0.5393715 4.35261084 0 3.10551666 0 0 Z " fill="#141515" transform="translate(28,41)"/>
<path d="M0 0 C2.875 -0.125 2.875 -0.125 6 0 C6.66 0.66 7.32 1.32 8 2 C7.34 2 6.68 2 6 2 C6 2.66 6 3.32 6 4 C5.01 4 4.02 4 3 4 C3 3.34 3 2.68 3 2 C2.01 2 1.02 2 0 2 C0 1.34 0 0.68 0 0 Z " fill="#882C2F" transform="translate(35,17)"/>
<path d="M0 0 C0.99 0 1.98 0 3 0 C3 0.99 3 1.98 3 3 C2.34 3 1.68 3 1 3 C0.67 3.66 0.34 4.32 0 5 C-1.32 5 -2.64 5 -4 5 C-4 4.34 -4 3.68 -4 3 C-2.68 3 -1.36 3 0 3 C0 2.01 0 1.02 0 0 Z " fill="#F6E70D" transform="translate(24,27)"/>
<path d="M0 0 C0.99 0.33 1.98 0.66 3 1 C3 1.66 3 2.32 3 3 C1.68 3 0.36 3 -1 3 C-0.67 2.01 -0.34 1.02 0 0 Z " fill="#FCFAF7" transform="translate(100,9)"/>
<path d="M0 0 C0.99 0 1.98 0 3 0 C3 0.99 3 1.98 3 3 C2.01 3 1.02 3 0 3 C0 2.01 0 1.02 0 0 Z " fill="#FFFFFF" transform="translate(204,9)"/>
<path d="M0 0 C0.99 0 1.98 0 3 0 C3 0.99 3 1.98 3 3 C2.01 3 1.02 3 0 3 C0 2.01 0 1.02 0 0 Z " fill="#FFFFFF" transform="translate(160,9)"/>
</svg>
